<svg
  xmlns="http://www.w3.org/2000/svg"
  viewBox="0 0 201.694 51.33"
  version="1.1"
>
  <rect
    class="donation-button-bg"
    width="201.694"
    height="51.33"
    rx="6.027"
    fill="#1aaa55"
  />
  <path
    d="M164.309 30.541h-3.083a13.349 13.349 0 01-3.166 2.73h6.249a.536.536 0 01.536.536v1.01a.536.536 0 01-.536.536h-26.384a.536.536 0 01-.536-.536v-1.01a.536.536 0 01.536-.536h6.248a13.364 13.364 0 01-3.165-2.73h-3.083a3.27 3.27 0 00-3.267 3.266v1.01a3.27 3.27 0 003.267 3.266h26.384a3.27 3.27 0 003.267-3.266v-1.01a3.27 3.27 0 00-3.267-3.266z"
    fill="#fff"
    fill-opacity="1"
  />
  <path
    d="M151.117 33.606a11.6 11.6 0 10-11.6-11.6 11.615 11.615 0 0011.6 11.6zm-3.121-4.716a5.332 5.332 0 01-2.179-1.188l2-2.244a2.72 2.72 0 001.188.858 5.419 5.419 0 001.471.31V23.44l-1.377-.415a4.845 4.845 0 01-2.178-1.273 3.231 3.231 0 01-.745-2.254 3.549 3.549 0 01.358-1.6 3.9 3.9 0 01.953-1.226 5.034 5.034 0 011.375-.832 6.018 6.018 0 011.612-.415V14.1h1.244v1.321a9 9 0 012.113.264 4.887 4.887 0 011.923.924l-1.81 2.206a2.819 2.819 0 00-1.037-.575 5.208 5.208 0 00-1.189-.217v3l1.811.528a4.149 4.149 0 011.99 1.235 3.2 3.2 0 01.744 2.178 4.043 4.043 0 01-.358 1.754 3.8 3.8 0 01-.98 1.282 4.7 4.7 0 01-1.452.83 7.285 7.285 0 01-1.754.4v1.32h-1.243v-1.32a9.335 9.335 0 01-2.48-.34z"
    fill="#fff"
    fill-opacity="1"
  />
  <path
    d="M150.476 18.084a2.616 2.616 0 00-.943.4 1 1 0 00-.415.886 1.177 1.177 0 00.17.679 1.359 1.359 0 00.4.387 1.564 1.564 0 00.453.2c.15.038.264.07.339.095z"
    fill="#fff"
    fill-opacity="1"
  />
  <path
    d="M152.814 26.155a1.4 1.4 0 00.368-.405 1.058 1.058 0 00.14-.557 1.135 1.135 0 00-.1-.509 1.074 1.074 0 00-.274-.349 1.8 1.8 0 00-.4-.245q-.227-.1-.47-.2l-.36-.132v2.829a4.219 4.219 0 00.576-.16 1.935 1.935 0 00.52-.272z"
    fill="#fff"
    fill-opacity="1"
  />
  <g aria-label="Donate" fill-opacity="1" fill="#fff">
    <path
      d="M34.118 34.769V15.78h6.276q2.387 0 4.345.537 1.985.51 3.54 1.609 1.583 1.1 2.468 3.004.885 1.877.885 4.398 0 2.95-1.502 5.15-1.502 2.172-3.889 3.245-2.387 1.046-5.283 1.046zm4.184-15.127v11.265h2.173q6.812 0 6.812-5.794 0-2.655-1.85-4.05-1.851-1.42-4.667-1.42z"
    />
    <path
      d="M55.568 33.213q-2.065-1.904-2.065-4.962 0-3.057 2.065-4.934 2.092-1.905 5.176-1.905 3.085 0 5.15 1.905 2.092 1.877 2.092 4.934 0 3.058-2.092 4.962-2.065 1.877-5.15 1.877-3.084 0-5.176-1.877zm2.816-7.349q-.858.912-.858 2.387 0 1.476.858 2.387.858.912 2.36.912 1.502 0 2.36-.912.859-.911.859-2.387 0-1.475-.859-2.387-.858-.911-2.36-.911-1.502 0-2.36.911z"
    />
    <path
      d="M70.329 34.769V21.734h3.862v1.77h.054q.456-.858 1.448-1.475.992-.617 2.36-.617 2.816 0 3.809 1.61 1.019 1.582 1.019 4.559v7.188h-4.023v-6.383q0-.59-.027-.94 0-.375-.107-.911-.108-.536-.322-.831-.215-.295-.644-.51-.402-.241-.992-.241-1.422 0-1.931.911-.483.886-.483 2.414v6.49z"
    />
    <path
      d="M93.91 34.769v-1.636h-.054q-1.234 1.957-4.13 1.957-1.931 0-3.3-1.072-1.34-1.073-1.34-2.95 0-.94.322-1.663.348-.751.831-1.207.483-.483 1.287-.805.805-.348 1.475-.51.698-.187 1.717-.268 1.02-.107 1.636-.107.617-.027 1.555-.027 0-1.046-.75-1.69-.751-.643-1.824-.643-1.878 0-3.272 1.556l-2.146-2.2q2.226-2.092 5.74-2.092 3.352 0 4.64 1.636 1.314 1.636 1.314 5.096v6.625zm0-5.713h-.993q-3.97 0-3.97 1.877 0 .67.564 1.046.59.376 1.341.376 1.26 0 2.146-.644.911-.644.911-1.797z"
    />
    <path
      d="M109.012 21.734v3.219h-3.54v4.344q0 1.234.348 1.824.35.59 1.556.59 1.234 0 1.636-.375v3.352q-1.1.402-2.816.402-2.146 0-3.46-.938-1.287-.966-1.287-3.004v-6.195h-2.575v-3.219h2.575v-3.862h4.023v3.862z"
    />
    <path
      d="M120.551 30.45l2.816 2.066q-.965 1.207-2.44 1.904-1.475.67-3.058.67-3.084 0-5.176-1.877-2.065-1.904-2.065-4.962 0-3.057 2.065-4.934 2.092-1.905 5.176-1.905 2.816 0 4.452 1.85 1.663 1.851 1.663 4.99v1.26h-9.333q.241 1.153 1.046 1.85.831.671 1.984.671 1.717 0 2.87-1.582zm-5.9-3.674h5.31q.027-1.019-.697-1.743-.697-.724-1.77-.724-1.26 0-2.012.724-.75.724-.831 1.743z"
    />
  </g>
</svg>
